<?xml version="1.0"?>
<!DOCTYPE svg PUBLIC "-//W3C//DTD SVG 1.1//EN" "http://www.w3.org/Graphics/SVG/1.1/DTD/svg11.dtd">
<svg xmlns="http://www.w3.org/2000/svg" xmlns:xl="http://www.w3.org/1999/xlink" version="1.1" viewBox="60 20 455 423" width="455pt" height="423pt"><metadata xmlns:dc="http://purl.org/dc/elements/1.1/"><dc:date>2017-09-04 22:28Z</dc:date><!-- Produced by OmniGraffle Professional 5.4 --></metadata><defs></defs><g stroke="none" stroke-opacity="1" stroke-dasharray="none" fill="none" fill-opacity="1"><title>Canvas 1</title><rect fill="white" width="559" height="783"/><g><title>topsides</title><path d="M 71.71756 224.5 L 142.71756 213 L 143.71756 198 L 165.71756 195 L 197.21756 397 L 377.71756 397.5 L 411.03293 195.44881 L 431.71756 197 L 434.71756 213 L 503.71756 224.5 L 503.61063 431.5 L 71.43512 431.5 Z" fill="#f0eae3"/><path d="M 71.71756 224.5 L 142.71756 213 L 143.71756 198 L 165.71756 195 L 197.21756 397 L 377.71756 397.5 L 411.03293 195.44881 L 431.71756 197 L 434.71756 213 L 503.71756 224.5 L 503.61063 431.5 L 71.43512 431.5 Z" stroke="black" stroke-linecap="round" stroke-linejoin="round" stroke-width="1"/><path d="M 475.1989 219.38689 L 448.56568 214.94459 L 448.9998 212.48257 L 466.74804 215.48514 L 467.4553 211.26632 C 467.4553 211.26632 461.44507 210.07963 457.60723 209.52984 C 458.87362 203.78751 464.51455 204.90909 464.51455 204.90909 L 477.09256 207 Z" fill="#9e6c5d"/><path d="M 475.1989 219.38689 L 448.56568 214.94459 L 448.9998 212.48257 L 466.74804 215.48514 L 467.4553 211.26632 C 467.4553 211.26632 461.44507 210.07963 457.60723 209.52984 C 458.87362 203.78751 464.51455 204.90909 464.51455 204.90909 L 477.09256 207 Z" stroke="black" stroke-linecap="round" stroke-linejoin="round" stroke-width="1"/><path d="M 100.67789 219.65071 L 127.31111 215.20841 L 126.87699 212.7464 L 109.12875 215.74896 L 108.42148 211.53015 C 108.42148 211.53015 114.431724 210.34346 118.26956 209.79367 C 117.003175 204.05133 111.362237 205.17291 111.362237 205.17291 L 98.78423 207.26383 Z" fill="#9e6c5d"/><path d="M 100.67789 219.65071 L 127.31111 215.20841 L 126.87699 212.7464 L 109.12875 215.74896 L 108.42148 211.53015 C 108.42148 211.53015 114.431724 210.34346 118.26956 209.79367 C 117.003175 204.05133 111.362237 205.17291 111.362237 205.17291 L 98.78423 207.26383 Z" stroke="black" stroke-linecap="round" stroke-linejoin="round" stroke-width="1"/></g><g><title>Layer 1</title><path d="M 112.38251 211.02787 L 140.75345 206.0253 L 141.361215 209.47213 L 112.99028 214.4747 Z" fill="#a06c2a"/><path d="M 112.38251 211.02787 L 140.75345 206.0253 L 141.361215 209.47213 L 112.99028 214.4747 Z" stroke="black" stroke-linecap="round" stroke-linejoin="round" stroke-width="1"/><path d="M 129.71756 207.75 L 148.46756 111 L 158.96756 111 L 140.46756 206 Z" fill="#a06d2a"/><path d="M 129.71756 207.75 L 148.46756 111 L 158.96756 111 L 140.46756 206 Z" stroke="black" stroke-linecap="round" stroke-linejoin="round" stroke-width="1"/><path d="M 143.21756 196 L 165.21756 193 L 162.96756 176 L 146.71756 178.25 Z" fill="#a06d2a"/><path d="M 143.21756 196 L 165.21756 193 L 162.96756 176 L 146.71756 178.25 Z" stroke="black" stroke-linecap="round" stroke-linejoin="round" stroke-width="1"/><path d="M 147.62837 173.24835 L 148.30967 177.1979 L 150.66155 176.86737 L 154.67953 205.45675 L 159.87844 204.72609 L 155.89891 176.41029 L 158.2508 176.07975 L 157.65483 171.83922 Z" fill="white"/><path d="M 147.62837 173.24835 L 148.30967 177.1979 L 150.66155 176.86737 L 154.67953 205.45675 L 159.87844 204.72609 L 155.89891 176.41029 L 158.2508 176.07975 L 157.65483 171.83922 Z" stroke="black" stroke-linecap="round" stroke-linejoin="round" stroke-width="1"/><path d="M 149.59244 198.47271 L 163.70376 196.48949 L 164.0169 198.7176 L 149.90558 200.70081 Z" fill="white"/><path d="M 149.59244 198.47271 L 163.70376 196.48949 L 164.0169 198.7176 L 149.90558 200.70081 Z" stroke="black" stroke-linecap="round" stroke-linejoin="round" stroke-width="1"/><path d="M 152.49223 203.9983 L 162.51869 202.58917 L 162.01419 198.99945 L 151.98773 200.40858 Z" fill="white"/><path d="M 152.49223 203.9983 L 162.51869 202.58917 L 162.01419 198.99945 L 151.98773 200.40858 Z" stroke="black" stroke-linecap="round" stroke-linejoin="round" stroke-width="1"/><path d="M 463.5526 211.02787 L 435.18167 206.0253 L 434.5739 209.47213 L 462.94484 214.4747 Z" fill="#a06c2a"/><path d="M 463.5526 211.02787 L 435.18167 206.0253 L 434.5739 209.47213 L 462.94484 214.4747 Z" stroke="black" stroke-linecap="round" stroke-linejoin="round" stroke-width="1"/><path d="M 446.21756 207.75 L 427.46756 111 L 416.96756 111 L 435.46756 206 Z" fill="#a06d2a"/><path d="M 446.21756 207.75 L 427.46756 111 L 416.96756 111 L 435.46756 206 Z" stroke="black" stroke-linecap="round" stroke-linejoin="round" stroke-width="1"/><path d="M 432.71756 196 L 410.71756 193 L 412.96756 176 L 429.21756 178.25 Z" fill="#a06d2a"/><path d="M 432.71756 196 L 410.71756 193 L 412.96756 176 L 429.21756 178.25 Z" stroke="black" stroke-linecap="round" stroke-linejoin="round" stroke-width="1"/><path d="M 428.30675 173.24835 L 427.62545 177.1979 L 425.27357 176.86737 L 421.2556 205.45675 L 416.05668 204.72609 L 420.0362 176.41029 L 417.68432 176.07975 L 418.2803 171.83922 Z" fill="white"/><path d="M 428.30675 173.24835 L 427.62545 177.1979 L 425.27357 176.86737 L 421.2556 205.45675 L 416.05668 204.72609 L 420.0362 176.41029 L 417.68432 176.07975 L 418.2803 171.83922 Z" stroke="black" stroke-linecap="round" stroke-linejoin="round" stroke-width="1"/><path d="M 426.34268 198.47271 L 412.23136 196.48949 L 411.91822 198.7176 L 426.02954 200.70081 Z" fill="white"/><path d="M 426.34268 198.47271 L 412.23136 196.48949 L 411.91822 198.7176 L 426.02954 200.70081 Z" stroke="black" stroke-linecap="round" stroke-linejoin="round" stroke-width="1"/><path d="M 423.4429 203.9983 L 413.41643 202.58917 L 413.92093 198.99945 L 423.9474 200.40858 Z" fill="white"/><path d="M 423.4429 203.9983 L 413.41643 202.58917 L 413.92093 198.99945 L 423.9474 200.40858 Z" stroke="black" stroke-linecap="round" stroke-linejoin="round" stroke-width="1"/><rect x="148" y="99.5" width="32.25" height="10.5" fill="#a06d2a"/><rect x="148" y="99.5" width="32.25" height="10.5" stroke="black" stroke-linecap="round" stroke-linejoin="round" stroke-width="1"/><path d="M 166.625 97 C 166.625 97 175.93115 97.024487 179.625 96.875 C 179.875 10.125 395.75 9 395.5 96.5 C 412.27085 96.300595 408.625 96.5 408.625 96.5 L 408.75 99.25 L 166.625 99.5 Z" fill="white"/><path d="M 166.625 97 C 166.625 97 175.93115 97.024487 179.625 96.875 C 179.875 10.125 395.75 9 395.5 96.5 C 412.27085 96.300595 408.625 96.5 408.625 96.5 L 408.75 99.25 L 166.625 99.5 Z" stroke="black" stroke-linecap="round" stroke-linejoin="round" stroke-width="1"/><rect x="395" y="99.5" width="32.25" height="10.5" fill="#a06d2a"/><rect x="395" y="99.5" width="32.25" height="10.5" stroke="black" stroke-linecap="round" stroke-linejoin="round" stroke-width="1"/><path d="M 338.75 54.291667 C 340.18107 52.621212 341.20327 51.32197 346.31425 46.125 C 349.38084 47.98106 356.74065 47.609848 360.625 57.44697 C 359.19393 59.30303 354.08294 62.829545 352.243 64.5 C 347.94977 57.075758 345.4965 56.89015 338.75 54.291667 Z" fill="white"/><path d="M 338.75 54.291667 C 340.18107 52.621212 341.20327 51.32197 346.31425 46.125 C 349.38084 47.98106 356.74065 47.609848 360.625 57.44697 C 359.19393 59.30303 354.08294 62.829545 352.243 64.5 C 347.94977 57.075758 345.4965 56.89015 338.75 54.291667 Z" stroke="black" stroke-linecap="round" stroke-linejoin="round" stroke-width="1"/></g></g></svg>
